<mxfile host="app.diagrams.net" modified="2023-06-04T21:29:50.755Z" agent="Mozilla/5.0 (Windows NT 10.0; Win64; x64) AppleWebKit/537.36 (KHTML, like Gecko) Chrome/112.0.0.0 Whale/3.20.182.14 Safari/537.36" version="21.3.7" etag="4mw0ZhNuphO0i7g77j2h" type="github">
  <diagram name="페이지-1" id="enHCMfwex6uv1AGLnhLU">
    <mxGraphModel>
      <root>
        <mxCell id="0" />
        <mxCell id="1" parent="0" />
      </root>
    </mxGraphModel>
  </diagram>
</mxfile>
